<?xml version="1.0" encoding="iso-8859-1"?>
<!-- Uploaded to: SVG Repo, www.svgrepo.com, Generator: SVG Repo Mixer Tools -->
<!DOCTYPE svg PUBLIC "-//W3C//DTD SVG 1.1//EN" "http://www.w3.org/Graphics/SVG/1.1/DTD/svg11.dtd">
<svg height="800px" width="800px" version="1.1" id="Capa_1" xmlns="http://www.w3.org/2000/svg" xmlns:xlink="http://www.w3.org/1999/xlink" 
	 viewBox="0 0 60 60" xml:space="preserve">
<g>
	<path style="fill:#434C6D;" d="M59.261,46.849L44.166,29.152c-0.25-0.293-0.645-0.418-1.02-0.316
		c-0.373,0.1-0.654,0.405-0.725,0.784l-4.224,22.873c-0.08,0.434,0.134,0.869,0.525,1.07c0.146,0.075,0.302,0.111,0.458,0.111
		c0.265,0,0.525-0.105,0.719-0.305l6.879-7.115l3.484,13.003C50.383,59.706,50.787,60,51.228,60c0.086,0,0.173-0.011,0.26-0.034
		c0.533-0.143,0.85-0.691,0.707-1.225l-3.484-13.003l9.514,2.722c0.424,0.117,0.877-0.05,1.116-0.421S59.547,47.185,59.261,46.849z"
		/>
	<g>
		<path style="fill:#7383BF;" d="M35.5,52H35c-0.553,0-1-0.447-1-1s0.447-1,1-1h0.5c0.553,0,1,0.447,1,1S36.053,52,35.5,52z"/>
		<path style="fill:#7383BF;" d="M31.118,52h-0.971c-0.553,0-1-0.447-1-1s0.447-1,1-1h0.971c0.553,0,1,0.447,1,1
			S31.671,52,31.118,52z M26.266,52h-0.971c-0.553,0-1-0.447-1-1s0.447-1,1-1h0.971c0.553,0,1,0.447,1,1S26.818,52,26.266,52z
			 M21.412,52h-0.971c-0.553,0-1-0.447-1-1s0.447-1,1-1h0.971c0.553,0,1,0.447,1,1S21.965,52,21.412,52z M16.56,52h-0.971
			c-0.553,0-1-0.447-1-1s0.447-1,1-1h0.971c0.553,0,1,0.447,1,1S17.112,52,16.56,52z M11.706,52h-0.971c-0.553,0-1-0.447-1-1
			s0.447-1,1-1h0.971c0.553,0,1,0.447,1,1S12.259,52,11.706,52z M6.853,52H5.883c-0.553,0-1-0.447-1-1s0.447-1,1-1h0.971
			c0.553,0,1,0.447,1,1S7.406,52,6.853,52z"/>
		<path style="fill:#7383BF;" d="M2,52H1.5c-0.553,0-1-0.447-1-1v-0.5c0-0.553,0.447-1,1-1c0.405,0,0.755,0.241,0.912,0.588
			C2.759,50.245,3,50.595,3,51C3,51.553,2.553,52,2,52z"/>
		<path style="fill:#7383BF;" d="M1.5,47.5c-0.553,0-1-0.447-1-1v-1c0-0.553,0.447-1,1-1s1,0.447,1,1v1
			C2.5,47.053,2.053,47.5,1.5,47.5z M1.5,42.5c-0.553,0-1-0.447-1-1v-1c0-0.553,0.447-1,1-1s1,0.447,1,1v1
			C2.5,42.053,2.053,42.5,1.5,42.5z M1.5,37.5c-0.553,0-1-0.447-1-1v-1c0-0.553,0.447-1,1-1s1,0.447,1,1v1
			C2.5,37.053,2.053,37.5,1.5,37.5z M1.5,32.5c-0.553,0-1-0.447-1-1v-1c0-0.553,0.447-1,1-1s1,0.447,1,1v1
			C2.5,32.053,2.053,32.5,1.5,32.5z M1.5,27.5c-0.553,0-1-0.447-1-1v-1c0-0.553,0.447-1,1-1s1,0.447,1,1v1
			C2.5,27.053,2.053,27.5,1.5,27.5z M1.5,22.5c-0.553,0-1-0.447-1-1v-1c0-0.553,0.447-1,1-1s1,0.447,1,1v1
			C2.5,22.053,2.053,22.5,1.5,22.5z M1.5,17.5c-0.553,0-1-0.447-1-1v-1c0-0.553,0.447-1,1-1s1,0.447,1,1v1
			C2.5,17.053,2.053,17.5,1.5,17.5z M1.5,12.5c-0.553,0-1-0.447-1-1v-1c0-0.553,0.447-1,1-1s1,0.447,1,1v1
			C2.5,12.053,2.053,12.5,1.5,12.5z M1.5,7.5c-0.553,0-1-0.447-1-1v-1c0-0.553,0.447-1,1-1s1,0.447,1,1v1
			C2.5,7.053,2.053,7.5,1.5,7.5z"/>
		<path style="fill:#7383BF;" d="M1.5,2.5c-0.553,0-1-0.447-1-1V1c0-0.553,0.447-1,1-1H2c0.553,0,1,0.447,1,1
			c0,0.405-0.241,0.755-0.588,0.912C2.255,2.259,1.905,2.5,1.5,2.5z"/>
		<path style="fill:#7383BF;" d="M47,2h-1c-0.553,0-1-0.447-1-1s0.447-1,1-1h1c0.553,0,1,0.447,1,1S47.553,2,47,2z M42,2h-1
			c-0.553,0-1-0.447-1-1s0.447-1,1-1h1c0.553,0,1,0.447,1,1S42.553,2,42,2z M37,2h-1c-0.553,0-1-0.447-1-1s0.447-1,1-1h1
			c0.553,0,1,0.447,1,1S37.553,2,37,2z M32,2h-1c-0.553,0-1-0.447-1-1s0.447-1,1-1h1c0.553,0,1,0.447,1,1S32.553,2,32,2z M27,2h-1
			c-0.553,0-1-0.447-1-1s0.447-1,1-1h1c0.553,0,1,0.447,1,1S27.553,2,27,2z M22,2h-1c-0.553,0-1-0.447-1-1s0.447-1,1-1h1
			c0.553,0,1,0.447,1,1S22.553,2,22,2z M17,2h-1c-0.553,0-1-0.447-1-1s0.447-1,1-1h1c0.553,0,1,0.447,1,1S17.553,2,17,2z M12,2h-1
			c-0.553,0-1-0.447-1-1s0.447-1,1-1h1c0.553,0,1,0.447,1,1S12.553,2,12,2z M7,2H6C5.447,2,5,1.553,5,1s0.447-1,1-1h1
			c0.553,0,1,0.447,1,1S7.553,2,7,2z"/>
		<path style="fill:#7383BF;" d="M51.5,2.5c-0.405,0-0.755-0.241-0.912-0.588C50.241,1.755,50,1.405,50,1c0-0.553,0.447-1,1-1h0.5
			c0.553,0,1,0.447,1,1v0.5C52.5,2.053,52.053,2.5,51.5,2.5z"/>
		<path style="fill:#7383BF;" d="M51.5,26.639c-0.553,0-1-0.447-1-1v-0.966c0-0.553,0.447-1,1-1s1,0.447,1,1v0.966
			C52.5,26.191,52.053,26.639,51.5,26.639z M51.5,21.811c-0.553,0-1-0.447-1-1v-0.965c0-0.553,0.447-1,1-1s1,0.447,1,1v0.965
			C52.5,21.363,52.053,21.811,51.5,21.811z M51.5,16.983c-0.553,0-1-0.447-1-1v-0.966c0-0.553,0.447-1,1-1s1,0.447,1,1v0.966
			C52.5,16.536,52.053,16.983,51.5,16.983z M51.5,12.155c-0.553,0-1-0.447-1-1V10.19c0-0.553,0.447-1,1-1s1,0.447,1,1v0.965
			C52.5,11.708,52.053,12.155,51.5,12.155z M51.5,7.328c-0.553,0-1-0.447-1-1V5.362c0-0.553,0.447-1,1-1s1,0.447,1,1v0.966
			C52.5,6.881,52.053,7.328,51.5,7.328z"/>
		<path style="fill:#7383BF;" d="M51.5,31c-0.553,0-1-0.447-1-1v-0.5c0-0.553,0.447-1,1-1s1,0.447,1,1V30
			C52.5,30.553,52.053,31,51.5,31z"/>
	</g>
</g>
</svg>